<svg width="30" height="28" viewBox="0 0 30 28" fill="none" xmlns="http://www.w3.org/2000/svg">
<path d="M11.693 14.9738C12.6399 15.6756 13.7929 16.0878 15.035 16.0878C16.2771 16.0878 17.4301 15.6756 18.377 14.9738" stroke="black" stroke-width="2.29167" stroke-linecap="round"/>
<path d="M19.4905 8.84714C19.4905 9.76954 18.9914 10.5181 18.3765 10.5181C17.7616 10.5181 17.2625 9.76954 17.2625 8.84714C17.2625 7.92474 17.7616 7.17613 18.3765 7.17613C18.9914 7.17613 19.4905 7.92474 19.4905 8.84714Z" fill="black"/>
<path d="M11.6926 10.5181C12.3079 10.5181 12.8067 9.77001 12.8067 8.84714C12.8067 7.92427 12.3079 7.17613 11.6926 7.17613C11.0774 7.17613 10.5786 7.92427 10.5786 8.84714C10.5786 9.77001 11.0774 10.5181 11.6926 10.5181Z" fill="black"/>
<path d="M5.52839 24.8829L7.79204 23.0723L7.8069 23.0604C8.27924 22.6817 8.51837 22.4915 8.78425 22.3564C9.0219 22.2346 9.2759 22.1455 9.5388 22.092C9.83439 22.0311 10.1419 22.0311 10.7598 22.0311H23.654C25.3146 22.0311 26.1464 22.0311 26.7806 21.7073C27.3396 21.4225 27.794 20.968 28.0788 20.4091C28.4026 19.7734 28.4026 18.9416 28.4026 17.2839V5.98496C28.4026 4.32435 28.4026 3.49256 28.0788 2.85832C27.7935 2.29921 27.3386 1.84477 26.7791 1.56013C26.1449 1.23633 25.3131 1.23633 23.6495 1.23633H6.41959C4.75601 1.23633 3.92422 1.23633 3.28849 1.56013C2.72949 1.84485 2.27503 2.29931 1.99031 2.85832C1.6665 3.49404 1.6665 4.32583 1.6665 5.98941V23.0277C1.6665 24.6111 1.6665 25.4028 1.99031 25.8083C2.12955 25.9831 2.30644 26.1243 2.50781 26.2212C2.70918 26.3182 2.92983 26.3684 3.15333 26.3683C3.6732 26.3683 4.2911 25.8722 5.52839 24.8829Z" stroke="black" stroke-width="2.29167" stroke-linecap="round" stroke-linejoin="round"/>
</svg>
