<svg width="15" height="17" viewBox="0 0 15 17" fill="none" xmlns="http://www.w3.org/2000/svg">
<path d="M10.0775 0.819504H5.41381C4.98454 0.819504 4.63654 1.16151 4.63654 1.58339V3.11117C4.63654 3.53305 4.98454 3.87506 5.41381 3.87506H10.0775C10.5068 3.87506 10.8548 3.53305 10.8548 3.11117V1.58339C10.8548 1.16151 10.5068 0.819504 10.0775 0.819504Z" stroke="black" stroke-width="1.52778" stroke-linecap="round" stroke-linejoin="round"/>
<path d="M10.855 2.34694H12.4096C12.8219 2.34694 13.2173 2.5079 13.5088 2.79441C13.8004 3.08093 13.9641 3.46953 13.9641 3.87472V14.5692C13.9641 14.9744 13.8004 15.3629 13.5088 15.6495C13.2173 15.936 12.8219 16.0969 12.4096 16.0969H3.08224C2.66994 16.0969 2.27454 15.936 1.983 15.6495C1.69146 15.3629 1.52768 14.9744 1.52768 14.5692V3.87472C1.52768 3.46953 1.69146 3.08093 1.983 2.79441C2.27454 2.5079 2.66994 2.34694 3.08224 2.34694H4.6368" stroke="black" stroke-width="1.52778" stroke-linecap="round" stroke-linejoin="round"/>
</svg>
