<svg width="16" height="15" viewBox="0 0 16 15" fill="none" xmlns="http://www.w3.org/2000/svg">
<path d="M6.04075 8.986L6.80715 9.11128C6.82565 9.00189 6.8197 8.88986 6.78971 8.78296C6.75973 8.67607 6.70642 8.57687 6.63349 8.49226C6.56056 8.40765 6.46976 8.33965 6.3674 8.293C6.26505 8.24635 6.15358 8.22216 6.04075 8.22211V8.986ZM14.5908 8.986V9.74989C14.797 9.74989 14.9947 9.66941 15.1404 9.52615C15.2862 9.38289 15.3681 9.18859 15.3681 8.986H14.5908ZM13.0363 0.583221H4.20637V2.111H13.0363V0.583221ZM3.27364 9.74989H6.04075V8.22211H3.27364V9.74989ZM5.27358 8.86072L4.64787 12.5541L6.18066 12.8054L6.80715 9.11128L5.27358 8.86072ZM6.18066 14.3332H6.347V12.8054H6.18066V14.3332ZM8.93456 12.9727L10.8894 10.0898L9.59603 9.2419L7.64039 12.1248L8.93456 12.9727ZM11.5361 9.74989H14.5908V8.22211H11.5361V9.74989ZM15.3681 8.986V2.87489H13.8135V8.986H15.3681ZM1.91962 2.42572L0.986881 7.00905L2.51035 7.3085L3.44309 2.72517L1.91962 2.42572ZM10.8894 10.0898C10.9604 9.98523 11.0566 9.89948 11.1694 9.84018C11.2822 9.78088 11.4082 9.74987 11.5361 9.74989V8.22211C11.1522 8.22214 10.7743 8.3153 10.4359 8.49333C10.0974 8.67137 9.80895 8.92876 9.59603 9.24267L10.8894 10.0906V10.0898ZM4.64787 12.5541C4.61073 12.7729 4.62254 12.9971 4.68246 13.211C4.74238 13.4249 4.84898 13.6234 4.99485 13.7927C5.14072 13.962 5.32236 14.098 5.52714 14.1914C5.73192 14.2847 5.95493 14.3331 6.18066 14.3332V12.8054L4.64787 12.5541ZM3.27364 8.22211C3.15862 8.22216 3.04502 8.19711 2.94105 8.14879C2.83707 8.10047 2.7453 8.03007 2.67235 7.94267C2.59941 7.85527 2.54711 7.75305 2.51923 7.64339C2.49135 7.53372 2.48781 7.41934 2.51035 7.3085L0.986881 7.00905C0.919276 7.34146 0.927549 7.68447 1.0111 8.01335C1.09466 8.34224 1.25141 8.64881 1.47007 8.91098C1.68873 9.17314 1.96384 9.38437 2.27559 9.52944C2.58733 9.6745 2.92794 9.7498 3.27286 9.74989V8.22211H3.27364ZM4.20637 0.583221C3.66724 0.583188 3.14474 0.766756 2.72782 1.10269C2.31089 1.43862 2.02529 1.90615 1.91962 2.42572L3.44309 2.72517C3.47834 2.5518 3.5737 2.39583 3.71289 2.28383C3.85208 2.17183 4.02648 2.11075 4.20637 2.111V0.583221ZM6.347 14.3332C6.85894 14.3333 7.36299 14.2092 7.81438 13.9719C8.26578 13.7345 8.65056 13.3913 8.93456 12.9727L7.64039 12.1248C7.49847 12.3341 7.30616 12.5058 7.08054 12.6245C6.85491 12.7432 6.60294 12.8054 6.347 12.8054V14.3332ZM13.0363 2.111C13.2424 2.111 13.4401 2.19148 13.5859 2.33474C13.7317 2.47799 13.8135 2.67229 13.8135 2.87489H15.3681C15.3681 2.2671 15.1224 1.68421 14.6851 1.25444C14.2478 0.824664 13.6547 0.583221 13.0363 0.583221V2.111Z" fill="black"/>
<path d="M11.4818 8.98706V1.34818" stroke="black" stroke-width="1.52778"/>
</svg>
