<svg width="17" height="17" viewBox="0 0 17 17" fill="none" xmlns="http://www.w3.org/2000/svg">
<path d="M14.2954 0.0146484C13.7825 0.0146484 13.2804 0.21349 12.8934 0.600462L6.26135 7.21178C6.16576 7.30737 6.10071 7.4292 6.07444 7.56181L6.07322 7.56796L5.6126 9.91121C5.51439 10.3733 5.9251 10.7833 6.38722 10.6852L8.73047 10.2245L8.73598 10.2234C8.86858 10.1971 8.99038 10.132 9.08597 10.0364L15.6973 3.40433C15.9744 3.12653 16.163 2.77291 16.2395 2.38805C16.3159 2.0032 16.2766 1.60433 16.1267 1.24174C15.9768 0.879143 15.7228 0.569055 15.3969 0.350562C15.071 0.132069 14.6877 0.0156232 14.2954 0.0146484ZM14.2954 1.31214C14.452 1.31214 14.6067 1.39248 14.756 1.54178C15.0539 1.84038 15.0539 2.16442 14.756 2.46234L8.40919 8.80979C8.31834 8.90065 8.20262 8.96259 8.07662 8.98781C7.6211 9.07896 7.21947 8.67731 7.31062 8.2218C7.33584 8.09581 7.39777 7.98009 7.48862 7.88924L13.8354 1.54245C13.984 1.39382 14.1387 1.31214 14.2954 1.31214ZM1.57484 2.6719C0.835332 2.6719 0.23584 3.27139 0.23584 4.0109V14.7229C0.23584 15.4624 0.835332 16.0619 1.57484 16.0619H12.2869C13.0264 16.0619 13.6259 15.4624 13.6259 14.7229V8.84886C13.6259 8.2524 12.9047 7.95369 12.483 8.37545C12.3574 8.501 12.2869 8.67129 12.2869 8.84886V13.3839C12.2869 14.1234 11.6874 14.7229 10.9479 14.7229H2.91385C2.17434 14.7229 1.57484 14.1234 1.57484 13.3839V5.3499C1.57484 4.61039 2.17433 4.0109 2.91384 4.0109H7.4489C7.62647 4.0109 7.79675 3.94036 7.92231 3.81481C8.34407 3.39305 8.04536 2.6719 7.4489 2.6719H1.57484Z" fill="black"/>
</svg>
