<svg width="17" height="17" viewBox="0 0 17 17" fill="none" xmlns="http://www.w3.org/2000/svg">
<path d="M8.28256 10.9218C8.51324 10.9218 8.70673 10.8436 8.86305 10.6873C9.01936 10.531 9.09725 10.3378 9.09671 10.1076C9.09671 9.87696 9.01855 9.68346 8.86223 9.52714C8.70592 9.37083 8.51269 9.29294 8.28256 9.29348C8.05189 9.29348 7.85839 9.37164 7.70208 9.52796C7.54576 9.68427 7.46787 9.8775 7.46842 10.1076C7.46842 10.3383 7.54657 10.5318 7.70289 10.6881C7.85921 10.8444 8.05243 10.9223 8.28256 10.9218ZM7.46842 7.66519H9.09671V2.78033H7.46842V7.66519ZM0.141113 16.6208V1.96618C0.141113 1.5184 0.300686 1.13494 0.61983 0.815795C0.938975 0.49665 1.32217 0.337349 1.7694 0.337892H14.7957C15.2435 0.337892 15.627 0.497464 15.9461 0.816609C16.2652 1.13575 16.4246 1.51894 16.424 1.96618V11.7359C16.424 12.1837 16.2644 12.5672 15.9453 12.8863C15.6261 13.2055 15.243 13.3648 14.7957 13.3642H3.39769L0.141113 16.6208ZM2.70567 11.7359H14.7957V1.96618H1.7694V12.6518L2.70567 11.7359Z" fill="black"/>
</svg>
