<svg width="18" height="17" viewBox="0 0 18 17" fill="none" xmlns="http://www.w3.org/2000/svg">
<path fill-rule="evenodd" clip-rule="evenodd" d="M0.84668 8.45747C0.84668 3.81661 4.6086 0.0546875 9.24946 0.0546875C13.8903 0.0546875 17.6522 3.81661 17.6522 8.45747C17.6522 13.0983 13.8903 16.8602 9.24946 16.8602C4.6086 16.8602 0.84668 13.0983 0.84668 8.45747ZM9.24946 1.73524C7.46661 1.73524 5.75679 2.44348 4.49613 3.70414C3.23547 4.9648 2.52724 6.67462 2.52724 8.45747C2.52724 10.2403 3.23547 11.9501 4.49613 13.2108C5.75679 14.4715 7.46661 15.1797 9.24946 15.1797C11.0323 15.1797 12.7421 14.4715 14.0028 13.2108C15.2634 11.9501 15.9717 10.2403 15.9717 8.45747C15.9717 6.67462 15.2634 4.9648 14.0028 3.70414C12.7421 2.44348 11.0323 1.73524 9.24946 1.73524Z" fill="black"/>
<path fill-rule="evenodd" clip-rule="evenodd" d="M10.0897 4.25657C10.0897 4.03371 10.0012 3.81998 9.8436 3.6624C9.68601 3.50482 9.47229 3.41629 9.24943 3.41629C9.02658 3.41629 8.81285 3.50482 8.65526 3.6624C8.49768 3.81998 8.40915 4.03371 8.40915 4.25657V7.61768H5.04804C4.82519 7.61768 4.61146 7.70621 4.45388 7.86379C4.29629 8.02137 4.20776 8.2351 4.20776 8.45796C4.20776 8.68081 4.29629 8.89454 4.45388 9.05212C4.61146 9.20971 4.82519 9.29824 5.04804 9.29824H8.40915V12.6593C8.40915 12.8822 8.49768 13.0959 8.65526 13.2535C8.81285 13.4111 9.02658 13.4996 9.24943 13.4996C9.47229 13.4996 9.68601 13.4111 9.8436 13.2535C10.0012 13.0959 10.0897 12.8822 10.0897 12.6593V9.29824H13.4508C13.6737 9.29824 13.8874 9.20971 14.045 9.05212C14.2026 8.89454 14.2911 8.68081 14.2911 8.45796C14.2911 8.2351 14.2026 8.02137 14.045 7.86379C13.8874 7.70621 13.6737 7.61768 13.4508 7.61768H10.0897V4.25657Z" fill="black"/>
</svg>
