<svg width="16" height="15" viewBox="0 0 16 15" fill="none" xmlns="http://www.w3.org/2000/svg">
<path d="M10.0126 5.93044L9.25942 5.80517C9.24123 5.91455 9.24708 6.02658 9.27655 6.13348C9.30603 6.24038 9.35842 6.33958 9.43009 6.42419C9.50176 6.5088 9.59099 6.57679 9.69159 6.62344C9.79218 6.67009 9.90173 6.69428 10.0126 6.69433V5.93044ZM1.60984 5.93044V5.16655C1.40724 5.16655 1.21294 5.24704 1.06969 5.39029C0.926428 5.53355 0.845947 5.72785 0.845947 5.93044H1.60984ZM3.13761 14.3332H11.8154V12.8054H3.13761V14.3332ZM12.7321 5.16655H10.0126V6.69433H12.7321V5.16655ZM10.7666 6.05572L11.3815 2.36232L9.87511 2.111L9.25942 5.80517L10.7666 6.05572ZM9.87511 0.583222H9.71164V2.111H9.87511V0.583222ZM7.16866 1.94371L5.24748 4.82662L6.51859 5.67454L8.44053 2.79162L7.16866 1.94371ZM4.61192 5.16655H1.60984V6.69433H4.61192V5.16655ZM0.845947 5.93044V12.0416H2.37373V5.93044H0.845947ZM14.0628 12.4907L14.9794 7.90739L13.4822 7.60794L12.5655 12.1913L14.0628 12.4907ZM5.24748 4.82662C5.17769 4.93121 5.08318 5.01696 4.97231 5.07626C4.86144 5.13556 4.73765 5.16657 4.61192 5.16655V6.69433C4.98918 6.69431 5.3606 6.60114 5.69321 6.42311C6.02582 6.24508 6.30933 5.98768 6.51859 5.67378L5.24748 4.82586V4.82662ZM11.3815 2.36232C11.418 2.14349 11.4064 1.91935 11.3475 1.70546C11.2886 1.49157 11.1839 1.29307 11.0405 1.12376C10.8971 0.954453 10.7186 0.818396 10.5174 0.72505C10.3161 0.631703 10.097 0.583305 9.87511 0.583222V2.111L11.3815 2.36232ZM12.7321 6.69433C12.8451 6.69429 12.9567 6.71933 13.0589 6.76765C13.1611 6.81598 13.2513 6.88637 13.323 6.97377C13.3947 7.06117 13.4461 7.16339 13.4735 7.27305C13.5009 7.38272 13.5044 7.4971 13.4822 7.60794L14.9794 7.90739C15.0459 7.57498 15.0377 7.23197 14.9556 6.90309C14.8735 6.5742 14.7194 6.26763 14.5046 6.00546C14.2897 5.7433 14.0193 5.53207 13.7129 5.38701C13.4065 5.24194 13.0718 5.16665 12.7328 5.16655V6.69433H12.7321ZM11.8154 14.3332C12.3452 14.3333 12.8587 14.1497 13.2685 13.8138C13.6782 13.4778 13.9589 13.0103 14.0628 12.4907L12.5655 12.1913C12.5309 12.3646 12.4372 12.5206 12.3004 12.6326C12.1636 12.7446 11.9922 12.8057 11.8154 12.8054V14.3332ZM9.71164 0.583222C9.20852 0.583104 8.71316 0.707224 8.26954 0.94456C7.82591 1.1819 7.44776 1.5251 7.16866 1.94371L8.44053 2.79162C8.58 2.58231 8.769 2.41066 8.99074 2.29193C9.21248 2.17319 9.46011 2.11105 9.71164 2.111V0.583222ZM3.13761 12.8054C2.93502 12.8054 2.74072 12.725 2.59746 12.5817C2.45421 12.4384 2.37373 12.2442 2.37373 12.0416H0.845947C0.845947 12.6493 1.08739 13.2322 1.51716 13.662C1.94693 14.0918 2.52983 14.3332 3.13761 14.3332V12.8054Z" fill="black"/>
<path d="M4.73169 5.93088V13.5698" stroke="black" stroke-width="1.52778"/>
</svg>
