<svg width="15" height="15" viewBox="0 0 15 15" fill="none" xmlns="http://www.w3.org/2000/svg">
<path fill-rule="evenodd" clip-rule="evenodd" d="M4.33503 10.1112H3.78503V10.7987H4.33503C4.54128 10.7987 4.67878 10.6612 4.67878 10.455C4.67878 10.2487 4.54128 10.1112 4.33503 10.1112ZM7.91003 1.86121H2.41003V12.8612H11.3475V5.29871L7.91003 1.86121ZM5.29753 10.5237C5.29753 11.0737 4.88503 11.4862 4.33503 11.4862H3.78503V12.1737H3.09753V9.42371H4.33503C4.88503 9.42371 5.29753 9.83621 5.29753 10.3862V10.5237ZM8.11628 10.8675C8.11628 11.555 7.56628 12.1737 6.81003 12.1737H5.84753V9.42371H6.81003C7.49753 9.42371 8.11628 9.97371 8.11628 10.73V10.8675ZM10.66 10.1112H9.28503V10.7987H10.3163V11.4862H9.28503V12.1737H8.59753V9.42371H10.66V10.1112ZM10.66 8.73621H3.09753V2.54871H7.91003V5.29871H10.66V8.73621ZM6.81003 10.1112H6.53503V11.4862H6.81003C7.22253 11.4862 7.49753 11.2112 7.49753 10.7987C7.49753 10.3862 7.15378 10.1112 6.81003 10.1112Z" fill="black"/>
</svg>
