<svg width="18" height="13" viewBox="0 0 18 13" fill="none" xmlns="http://www.w3.org/2000/svg">
<path d="M11.0973 0.0839844C10.2869 0.0839844 9.5097 0.405908 8.93667 0.978936C8.36365 1.55196 8.04172 2.32916 8.04172 3.13954C8.04172 3.94992 8.36365 4.72712 8.93667 5.30014C9.5097 5.87317 10.2869 6.1951 11.0973 6.1951C11.9077 6.1951 12.6849 5.87317 13.2579 5.30014C13.8309 4.72712 14.1528 3.94992 14.1528 3.13954C14.1528 2.32916 13.8309 1.55196 13.2579 0.978936C12.6849 0.405908 11.9077 0.0839844 11.0973 0.0839844ZM11.0973 1.53537C11.3079 1.53537 11.5165 1.57687 11.7112 1.65748C11.9058 1.7381 12.0826 1.85626 12.2316 2.00522C12.3806 2.15418 12.4987 2.33103 12.5793 2.52565C12.66 2.72028 12.7014 2.92888 12.7014 3.13954C12.7014 3.3502 12.66 3.5588 12.5793 3.75343C12.4987 3.94806 12.3806 4.1249 12.2316 4.27386C12.0826 4.42282 11.9058 4.54098 11.7112 4.6216C11.5165 4.70221 11.3079 4.74371 11.0973 4.74371C10.8866 4.74371 10.678 4.70221 10.4834 4.6216C10.2888 4.54098 10.1119 4.42282 9.96296 4.27386C9.814 4.1249 9.69584 3.94806 9.61522 3.75343C9.5346 3.5588 9.49311 3.3502 9.49311 3.13954C9.49311 2.71409 9.66212 2.30606 9.96296 2.00522C10.2638 1.70438 10.6718 1.53537 11.0973 1.53537ZM2.6945 2.37565V4.66732H0.402832V6.1951H2.6945V8.48676H4.22228V6.1951H6.51394V4.66732H4.22228V2.37565H2.6945ZM11.0973 6.95898C9.05769 6.95898 4.98617 7.97496 4.98617 10.0145V12.3062H17.2084V10.0145C17.2084 7.97496 13.1369 6.95898 11.0973 6.95898ZM11.0973 8.41037C13.366 8.41037 15.757 9.52565 15.757 10.0145V10.8548H6.43755V10.0145C6.43755 9.52565 8.80561 8.41037 11.0973 8.41037Z" fill="black"/>
</svg>
