<svg width="20" height="17" viewBox="0 0 20 17" fill="none" xmlns="http://www.w3.org/2000/svg">
<path d="M10.5987 8.61274L3.223 9.59574C3.1382 9.60706 3.05863 9.63604 2.99228 9.67977C2.92592 9.72349 2.87513 9.78042 2.84501 9.84482L0.301909 15.2948C0.0590563 15.7961 0.714172 16.2739 1.31543 16.0326L18.9419 8.98323C19.0637 8.93439 19.1661 8.8594 19.2377 8.76665C19.3093 8.6739 19.3472 8.56705 19.3472 8.45805C19.3472 8.34905 19.3093 8.24219 19.2377 8.14944C19.1661 8.05669 19.0637 7.98171 18.9419 7.93287L1.31543 0.883453C0.714172 0.642989 0.0590563 1.12078 0.301909 1.62129L2.84599 7.07127C2.87611 7.13568 2.9269 7.1926 2.99325 7.23633C3.05961 7.28005 3.13918 7.30903 3.22398 7.32035L10.5997 8.30335C10.6457 8.30923 10.6876 8.32803 10.7178 8.35638C10.748 8.38473 10.7646 8.42078 10.7646 8.45805C10.7646 8.49532 10.748 8.53136 10.7178 8.55971C10.6876 8.58807 10.6457 8.60687 10.5997 8.61274H10.5987Z" fill="black"/>
</svg>
